<svg xmlns="http://www.w3.org/2000/svg" width="89.924" height="25.807" viewBox="0 0 89.924 25.807">
  <g id="组_847" data-name="组 847" transform="translate(-160 -36)">
    <g id="组_846" data-name="组 846">
      <path id="路径_179" data-name="路径 179" d="M272.408,204.822a5.44,5.44,0,0,0-1.791-1.079,5.814,5.814,0,0,0-1.981-.365h-7.345a6.209,6.209,0,0,0-2.209.4,5.5,5.5,0,0,0-1.8,1.151,5.769,5.769,0,0,0-1.222,1.8,5.985,5.985,0,0,0-.451,2.365v6.4a11.769,11.769,0,0,0,.259,2.492,5.806,5.806,0,0,0,.91,2.189,5.053,5.053,0,0,0,1.738,1.568,5.742,5.742,0,0,0,2.775.6h6.477a10.945,10.945,0,0,0,2.874-.328,4.223,4.223,0,0,0,1.981-1.162,5.261,5.261,0,0,0,1.17-2.259,14.238,14.238,0,0,0,.374-3.6V208.84a5.094,5.094,0,0,0-.495-2.309,5.541,5.541,0,0,0-1.265-1.709Zm-2.712,10.9h0a1.83,1.83,0,0,1-.964,1.567,4.155,4.155,0,0,1-2.274.62h-3.346a6.541,6.541,0,0,1-1.027-.1,2.964,2.964,0,0,1-1.017-.358,2.238,2.238,0,0,1-.783-.751,2.153,2.153,0,0,1-.313-1.2v-5.828a1.461,1.461,0,0,1,.258-.865,1.831,1.831,0,0,1,.635-.58,2.553,2.553,0,0,1,.868-.307,4.56,4.56,0,0,1,.943-.106h3.965a5.734,5.734,0,0,1,1.084.118,3.608,3.608,0,0,1,.984.35,2.334,2.334,0,0,1,.72.582,1.252,1.252,0,0,1,.268.78v6.079Zm-38.006-9.536h0a6.293,6.293,0,0,0-2.3-2.046,7.655,7.655,0,0,0-3.588-.76h-8.984a.331.331,0,0,0-.377.365v25.081a.328.328,0,0,0,.377.361h3.71a.318.318,0,0,0,.364-.361v-6.117a.324.324,0,0,1,.364-.363h3.82a9.091,9.091,0,0,0,3.341-.584A6.634,6.634,0,0,0,231,219.984a8.551,8.551,0,0,0,1.681-3.062,14.513,14.513,0,0,0,.6-4.44,15.839,15.839,0,0,0-.364-3.388,8.416,8.416,0,0,0-1.223-2.909Zm-2.638,8.041h0a3.434,3.434,0,0,1-.267,1.274,5.653,5.653,0,0,1-.7,1.191,4.036,4.036,0,0,1-.941.867,2.015,2.015,0,0,1-1.084.35h-4.8a.327.327,0,0,1-.364-.371v-9.35a.327.327,0,0,1,.364-.374h4.8a1.958,1.958,0,0,1,1.084.352,4.207,4.207,0,0,1,.941.855,5.1,5.1,0,0,1,.7,1.166,3.355,3.355,0,0,1,.267,1.24v2.8Zm22.578-9.4h0a5.386,5.386,0,0,0-1.777-1.079,5.935,5.935,0,0,0-1.984-.365h-7.353a6.185,6.185,0,0,0-2.208.4,5.365,5.365,0,0,0-3.012,2.953,5.749,5.749,0,0,0-.462,2.365v6.4a12.764,12.764,0,0,0,.246,2.492,6.371,6.371,0,0,0,.911,2.189,5.106,5.106,0,0,0,1.744,1.568,5.738,5.738,0,0,0,2.78.6h6.477a10.917,10.917,0,0,0,2.871-.328,4.181,4.181,0,0,0,1.983-1.162,5.328,5.328,0,0,0,1.172-2.259,14.2,14.2,0,0,0,.384-3.6V208.84a5.224,5.224,0,0,0-.5-2.309,5.536,5.536,0,0,0-1.277-1.709Zm-2.71,10.9h0a1.857,1.857,0,0,1-.965,1.567,4.166,4.166,0,0,1-2.285.62h-3.344a6.514,6.514,0,0,1-1.018-.1,2.777,2.777,0,0,1-1.008-.358,2.347,2.347,0,0,1-.795-.751,2.177,2.177,0,0,1-.309-1.2v-5.828a1.468,1.468,0,0,1,.256-.865,1.97,1.97,0,0,1,.635-.58,2.5,2.5,0,0,1,.866-.307,4.7,4.7,0,0,1,.946-.106h3.967a5.613,5.613,0,0,1,1.08.118,3.829,3.829,0,0,1,1,.35,2.22,2.22,0,0,1,.7.582,1.217,1.217,0,0,1,.281.78v6.079Zm-51.062-8.257h0v-3.72a.322.322,0,0,0-.363-.365h-8.45a4.449,4.449,0,0,0-1.855.387,4.911,4.911,0,0,0-1.532,1.028,5.034,5.034,0,0,0-1.029,1.541,4.411,4.411,0,0,0-.385,1.815v13.83a.322.322,0,0,0,.362.366h4.087a.319.319,0,0,0,.354-.366V209.425a1.475,1.475,0,0,1,.109-.49,1.872,1.872,0,0,1,.318-.512,2.106,2.106,0,0,1,.441-.409.975.975,0,0,1,.6-.2h6.981c.244,0,.363-.107.363-.35Zm4.586-4.085h5.212l7.592,18.921h-5.4l-4.954-13.264-5.35,13.264h-5.317l8.221-18.921Z" transform="translate(-24.243 -167.378)" fill-rule="evenodd"/>
    </g>
  </g>
</svg>
